<?xml version="1.0" standalone="no"?>
<!DOCTYPE svg PUBLIC "-//W3C//DTD SVG 20010904//EN"
 "http://www.w3.org/TR/2001/REC-SVG-20010904/DTD/svg10.dtd">
<svg version="1.0" xmlns="http://www.w3.org/2000/svg"
 width="600.000000pt" height="600.000000pt" viewBox="0 0 600.000000 600.000000"
 preserveAspectRatio="xMidYMid meet">
<metadata>
Created by potrace 1.14, written by Peter Selinger 2001-2017
</metadata>
<g transform="translate(0.000000,600.000000) scale(0.100000,-0.100000)"
fill="#000000" stroke="none">
<path d="M4903 5842 c-29 -4 -45 -44 -144 -362 -62 -197 -84 -283 -87 -335
l-4 -70 27 25 c15 14 34 37 43 52 13 23 59 54 68 46 7 -8 -19 -94 -46 -151
-46 -98 -136 -256 -152 -270 -8 -7 -48 -49 -88 -95 l-74 -84 24 -46 c22 -39
32 -48 78 -63 53 -18 54 -18 118 5 36 13 71 31 77 39 7 8 39 34 72 58 33 24
66 52 73 61 7 10 17 18 22 18 15 0 -2 -39 -19 -45 -9 -3 -25 -22 -36 -42 -11
-21 -36 -54 -55 -74 -41 -42 -60 -72 -60 -94 0 -9 -6 -18 -14 -21 -8 -3 -20
-18 -26 -34 -7 -16 -20 -32 -31 -35 -10 -3 -20 -14 -24 -24 -3 -9 -25 -30 -49
-45 -25 -15 -50 -41 -57 -58 -10 -26 -9 -36 8 -72 20 -39 24 -42 89 -58 l68
-16 36 31 c19 18 66 52 103 76 60 39 71 43 92 33 14 -7 25 -15 26 -19 0 -5 2
-41 3 -81 0 -40 6 -76 12 -80 16 -10 24 -100 29 -302 3 -96 7 -233 10 -304 l6
-129 -31 27 c-17 14 -37 26 -43 26 -6 0 -25 13 -42 29 -26 26 -32 28 -48 16
-18 -13 -18 -15 1 -52 11 -21 36 -90 56 -153 20 -63 39 -119 43 -125 5 -5 37
-25 73 -43 53 -26 77 -32 128 -32 43 0 62 4 62 13 -1 6 -5 57 -10 112 -13 134
-13 779 0 883 5 45 15 121 21 170 5 48 16 96 24 108 9 15 11 32 6 56 -11 49
-18 58 -46 58 -49 0 -53 9 -19 45 18 19 37 35 43 35 6 0 11 9 11 19 0 11 5 23
10 26 13 8 13 92 0 100 -6 4 -36 -9 -68 -28 -72 -44 -175 -90 -165 -74 37 62
94 146 101 149 4 1 25 28 45 58 20 30 64 84 97 119 33 35 60 67 60 70 0 14 62
60 105 77 25 11 52 29 61 42 14 21 13 23 -32 52 -38 24 -161 60 -209 62 -47 2
-57 -5 -90 -56 -19 -30 -67 -84 -107 -120 -124 -110 -245 -188 -147 -93 24 23
55 65 68 92 14 28 30 55 36 60 7 6 20 30 29 54 14 35 15 53 7 97 -14 73 -25
90 -71 114 -22 11 -40 27 -40 35 0 17 35 55 50 55 5 0 18 20 28 44 13 29 35
54 66 75 25 18 46 36 46 41 0 6 5 10 11 10 6 0 29 20 51 45 22 25 45 45 52 45
7 0 32 23 55 50 l43 50 -14 42 c-14 41 -15 41 -98 64 -67 19 -106 23 -194 21
-61 -1 -121 -3 -133 -5z"/>
<path d="M1339 5433 c-9 -23 -7 -35 9 -66 19 -34 19 -42 8 -75 -28 -78 -55
-112 -96 -118 -37 -6 -38 -8 -29 -33 6 -14 8 -39 5 -56 -7 -34 -120 -243 -141
-259 -7 -6 -37 -40 -66 -75 l-53 -65 60 34 c62 35 82 50 181 148 34 33 92 77
128 97 36 20 65 42 65 49 0 7 11 19 25 26 14 7 25 17 25 22 0 4 23 19 50 33
39 20 55 23 70 15 34 -18 60 -12 60 13 0 13 15 38 35 57 48 48 45 74 -12 128
-53 48 -115 84 -181 101 -23 7 -48 21 -55 31 -8 13 -23 20 -45 20 -26 0 -35
-5 -43 -27z"/>
<path d="M3810 5356 c0 -7 -47 -37 -105 -66 -58 -30 -105 -58 -105 -62 0 -4
-17 -16 -38 -27 -21 -11 -63 -39 -93 -63 -53 -42 -113 -78 -196 -117 l-42 -19
3 -104 c1 -69 8 -115 19 -141 19 -43 54 -62 78 -41 18 16 45 18 54 4 8 -13 69
-13 116 2 36 10 39 14 39 47 0 27 11 51 46 99 26 34 48 61 50 60 5 -6 -99
-312 -123 -362 -26 -57 -27 -70 -12 -131 9 -37 17 -46 50 -59 22 -9 51 -16 64
-16 14 0 25 -3 25 -6 0 -4 -26 -32 -58 -63 -203 -196 -493 -516 -526 -579 -9
-18 -28 -37 -41 -42 -33 -13 -39 -46 -24 -130 12 -70 12 -70 45 -70 18 0 34 3
36 8 2 4 44 27 93 52 78 39 100 45 166 48 52 3 96 -1 134 -13 32 -9 69 -14 82
-10 24 6 24 6 6 36 -54 93 -131 148 -204 149 -20 0 -38 3 -42 6 -6 6 160 214
171 214 4 0 33 34 66 75 32 41 62 75 67 75 11 0 57 46 90 90 15 19 29 33 32
30 3 -3 18 -46 33 -95 22 -74 28 -115 32 -233 2 -78 -1 -193 -7 -255 -12 -116
-42 -254 -54 -249 -4 1 -16 2 -27 2 -14 0 -27 14 -42 45 -12 25 -27 45 -34 45
-6 0 -17 7 -24 15 -10 12 -70 23 -70 12 0 -12 43 -147 65 -202 36 -93 103
-201 131 -214 17 -7 32 -7 57 4 22 9 53 12 93 8 l60 -5 12 53 c7 30 14 77 17
104 23 251 27 342 26 555 -2 217 -5 258 -26 359 -17 81 -34 130 -55 165 -17
27 -27 52 -23 55 5 3 17 20 27 36 11 17 25 37 32 45 33 38 75 87 93 110 12 14
61 70 111 125 75 84 90 105 90 133 l0 34 -47 -40 c-27 -22 -79 -71 -118 -109
-38 -38 -113 -102 -165 -142 -52 -41 -104 -85 -116 -98 -18 -21 -28 -24 -75
-21 -45 3 -54 6 -57 23 -2 14 8 29 28 44 21 15 45 52 71 108 21 47 63 126 93
176 29 51 65 115 80 144 14 29 32 56 39 60 8 4 26 26 41 49 15 23 38 46 51 52
14 7 25 16 25 22 0 5 11 10 24 10 13 0 26 6 29 14 3 8 22 20 41 27 71 26 34
75 -84 114 -30 10 -66 23 -80 30 -37 18 -220 27 -220 11z"/>
<path d="M2046 4832 c-38 -40 -70 -59 -157 -96 -98 -42 -115 -46 -189 -46 -63
0 -80 -3 -80 -14 0 -9 -12 -16 -32 -18 l-33 -3 43 -23 c24 -13 51 -31 60 -40
10 -10 35 -28 56 -41 36 -23 106 -116 106 -142 0 -28 -84 -415 -93 -426 -17
-24 -73 -14 -124 20 -71 48 -107 60 -157 55 l-44 -5 -6 36 c-21 141 -37 214
-54 248 -21 41 -84 89 -183 138 -30 15 -75 43 -102 61 -26 19 -58 34 -72 34
-24 0 -24 -1 -10 -39 21 -60 42 -96 89 -154 58 -71 66 -98 50 -172 -17 -77
-17 -122 -1 -128 6 -2 23 -32 36 -66 13 -34 30 -66 38 -72 7 -6 13 -15 13 -20
0 -20 -151 -82 -327 -134 -103 -31 -227 -70 -274 -86 -72 -26 -92 -29 -122
-21 -29 8 -41 6 -66 -9 -50 -30 -40 -48 60 -109 88 -54 91 -55 155 -51 49 2
71 8 85 22 13 13 31 19 57 17 24 -1 169 40 412 116 399 125 579 172 780 205
194 31 248 36 233 20 -7 -7 -13 -26 -13 -42 0 -34 10 -32 105 16 57 28 64 29
155 24 52 -3 156 -19 230 -35 216 -49 219 -49 263 -13 l38 30 -68 35 c-37 19
-84 45 -104 59 -33 22 -152 64 -279 97 -25 7 -81 14 -124 15 -72 3 -81 1 -103
-21 -20 -20 -34 -24 -81 -24 -31 0 -114 -7 -184 -16 -161 -19 -172 -18 -135
19 15 15 27 29 27 30 0 1 31 36 70 77 38 41 70 82 70 91 0 9 7 19 15 22 32 13
59 131 37 163 -4 6 -42 31 -85 55 -42 24 -78 48 -78 53 0 5 49 25 108 46 126
43 227 86 336 143 73 39 78 43 75 72 -3 28 -7 31 -68 47 -80 21 -177 38 -250
44 -55 5 -55 5 -104 -44z"/>
<path d="M5280 4715 c0 -13 141 -234 183 -285 36 -45 47 -67 47 -94 0 -45 33
-68 50 -36 8 14 21 20 47 20 47 0 103 56 103 102 0 40 -49 117 -109 169 -68
61 -212 129 -273 129 -26 0 -48 -2 -48 -5z"/>
<path d="M5423 3868 c2 -7 12 -59 22 -115 l18 -103 53 0 c51 0 53 -1 78 -42
24 -41 25 -41 26 -16 0 26 1 26 31 16 23 -8 39 -7 67 5 20 8 67 15 103 16 37
0 77 5 90 9 l23 9 -21 12 c-12 6 -47 33 -78 60 -97 85 -276 161 -378 161 -27
0 -38 -4 -34 -12z"/>
<path d="M4309 3829 c-18 -11 2 -86 38 -147 20 -35 38 -50 90 -75 l66 -30 91
12 c49 6 92 13 93 15 6 5 -30 101 -44 117 -7 9 -35 28 -61 42 -71 38 -249 81
-273 66z"/>
<path d="M2321 3562 l-23 -7 37 -45 c64 -77 122 -163 140 -208 19 -46 21 -87
10 -192 -6 -63 -6 -64 12 -45 31 34 100 85 116 85 9 0 30 13 48 29 44 41 70
41 169 4 102 -39 120 -40 120 -12 0 12 8 23 20 26 20 5 20 21 1 76 -12 32
-145 138 -224 179 -158 79 -357 131 -426 110z"/>
<path d="M731 3401 c-12 -8 -5 -25 35 -91 40 -65 60 -88 109 -120 74 -48 125
-70 163 -70 16 0 49 -9 73 -19 24 -10 65 -22 91 -25 l47 -7 3 -52 3 -52 33 63
c18 34 38 62 44 62 13 0 0 74 -14 79 -20 7 -78 63 -78 76 0 7 7 18 15 25 13
11 22 80 10 80 -2 0 -30 -11 -62 -25 -54 -24 -62 -25 -126 -15 -38 6 -122 31
-187 55 -123 47 -136 50 -159 36z"/>
<path d="M4486 2925 c-22 -13 -69 -31 -105 -39 -36 -9 -104 -28 -150 -43 -80
-26 -84 -27 -97 -9 -13 18 -15 18 -67 -3 -30 -12 -86 -41 -123 -63 -38 -22
-108 -60 -156 -84 l-87 -44 9 -30 c9 -31 8 -32 -52 -59 l-61 -27 2 -79 c3 -88
19 -138 50 -155 12 -6 21 -17 21 -25 0 -8 9 -15 19 -15 11 0 35 -18 54 -40 26
-31 41 -40 65 -40 18 0 32 5 32 10 0 6 10 15 23 21 12 6 37 34 55 62 41 63
119 128 195 161 30 14 58 30 62 37 8 13 94 53 101 47 2 -3 -16 -64 -41 -138
-44 -132 -85 -297 -85 -345 0 -26 -16 -31 -55 -16 -11 5 -34 2 -56 -7 l-37
-14 28 -44 c17 -27 62 -69 119 -111 l91 -67 -148 -37 c-81 -20 -210 -60 -287
-88 -131 -47 -143 -54 -191 -105 -51 -54 -51 -54 -57 -135 -4 -59 0 -104 14
-168 22 -105 148 -475 164 -485 6 -4 29 -44 50 -90 22 -46 45 -89 51 -96 7 -6
16 -22 20 -34 10 -31 35 -55 67 -63 15 -4 30 -11 33 -16 10 -17 61 -9 89 13
22 17 40 22 81 20 76 -3 101 -16 169 -82 46 -46 76 -65 129 -85 63 -24 74 -25
117 -15 l48 12 -13 36 c-10 28 -11 63 -5 137 11 131 12 138 71 433 27 140 48
262 45 273 -3 10 -1 53 4 94 7 58 6 88 -5 130 -8 30 -11 55 -8 56 54 6 277 9
340 4 l82 -7 0 -34 c0 -18 -7 -54 -16 -79 -8 -26 -14 -56 -12 -69 3 -22 3 -22
66 -9 52 12 70 22 113 64 28 27 55 49 60 49 5 0 9 6 9 14 0 7 10 16 21 19 20
5 21 11 17 72 -4 48 -13 76 -31 103 -14 20 -29 49 -32 64 -6 22 -22 35 -79 63
-130 64 -265 85 -538 85 l-178 0 -98 66 c-53 37 -99 68 -101 70 -1 1 2 9 8 16
7 7 28 40 49 74 118 193 152 243 204 292 75 73 225 172 260 172 15 0 30 5 33
11 4 6 22 8 45 4 99 -17 165 106 80 150 -16 8 -37 29 -45 45 -9 17 -20 30 -25
30 -5 0 -12 9 -15 21 -4 11 -26 29 -50 39 -24 10 -47 25 -52 32 -12 19 -220
118 -246 117 -12 0 -40 -11 -61 -24z m-91 -1494 c3 -6 15 -59 26 -118 18 -99
19 -121 8 -258 -11 -146 -32 -254 -63 -328 l-15 -37 -73 1 c-40 0 -97 -4 -127
-10 -84 -17 -117 -14 -164 16 -23 16 -48 34 -55 41 -8 6 -22 17 -32 22 -56 30
-135 298 -133 451 1 48 6 97 13 109 10 19 17 21 53 14 23 -3 65 -13 92 -20 98
-27 117 -29 132 -9 7 11 48 32 91 48 256 97 238 92 247 78z"/>
<path d="M2001 2691 c-70 -36 -85 -141 -19 -141 18 0 18 -2 38 -130 17 -109
18 -105 -55 -122 -47 -12 -80 -28 -124 -63 -33 -26 -63 -56 -66 -66 -6 -16
-14 -18 -86 -12 -76 6 -80 5 -86 -15 -4 -17 -13 -22 -39 -22 -19 0 -34 -1 -34
-3 0 -2 7 -24 15 -48 13 -39 23 -49 68 -71 28 -14 74 -42 101 -63 31 -23 55
-35 68 -32 10 3 33 1 49 -3 23 -7 47 -3 101 16 38 14 72 24 74 21 6 -6 -33
-120 -57 -168 -23 -46 -33 -53 -101 -75 -42 -13 -58 -23 -58 -35 0 -13 -15
-22 -54 -33 -68 -20 -76 -20 -76 0 0 15 -11 16 -92 11 -156 -10 -248 -49 -248
-106 0 -34 22 -81 50 -106 11 -10 20 -31 20 -47 0 -15 4 -28 9 -28 19 0 420
115 612 175 306 97 549 145 730 145 64 0 104 11 121 34 4 6 28 12 55 15 47 6
48 7 51 42 3 33 0 37 -25 42 -15 4 -81 18 -145 31 -65 14 -139 34 -164 46 -49
21 -84 26 -84 11 0 -5 -11 -12 -25 -15 -14 -4 -30 -17 -34 -29 -7 -19 -33 -28
-202 -69 -107 -25 -196 -45 -197 -43 -2 2 9 23 26 47 16 24 55 91 86 149 l56
105 173 57 c94 31 179 57 186 57 8 0 22 7 31 15 9 8 43 26 76 39 55 22 59 26
62 59 3 34 1 36 -35 46 -21 5 -78 17 -128 26 -156 28 -239 47 -271 60 -31 13
-31 13 -37 111 -4 55 -9 115 -13 135 -6 36 -7 36 -83 53 -95 20 -176 19 -220
-3z"/>
<path d="M627 2473 c-4 -3 -7 -23 -7 -43 0 -51 41 -110 141 -205 109 -104 139
-153 139 -234 0 -58 1 -61 25 -61 14 0 25 4 25 10 0 5 14 25 30 43 17 19 30
39 30 44 0 21 38 43 73 43 30 0 37 4 37 20 0 15 9 21 38 26 l39 6 -11 39 c-9
33 -22 48 -84 91 -92 63 -413 228 -445 228 -13 0 -27 -3 -30 -7z"/>
<path d="M774 1755 c-9 -37 1 -66 41 -116 31 -39 35 -50 35 -105 0 -90 -16
-161 -53 -234 -17 -36 -33 -68 -35 -72 -2 -3 19 1 47 9 35 12 51 23 55 37 3
12 26 53 50 91 25 39 46 75 46 82 0 7 6 16 13 20 7 4 17 22 22 38 7 19 18 31
33 33 14 2 22 10 22 22 0 10 5 20 11 22 7 2 7 17 -1 48 -11 43 -15 47 -106 98
-112 62 -169 70 -180 27z"/>
<path d="M1834 1425 c19 -15 19 -15 -2 -15 -28 0 -28 -3 8 -55 17 -24 30 -49
30 -55 0 -18 -81 -204 -92 -211 -6 -4 -27 -35 -47 -69 -38 -66 -43 -70 -104
-94 -30 -12 -42 -26 -62 -68 -14 -29 -25 -66 -25 -82 0 -39 77 -163 105 -168
25 -5 326 141 365 176 14 13 77 54 139 91 63 37 132 81 153 99 33 26 136 146
126 146 -2 0 -41 -15 -88 -33 -47 -18 -107 -39 -135 -46 -27 -7 -88 -24 -134
-38 -88 -26 -118 -26 -54 0 21 8 58 33 82 56 24 22 51 43 61 46 9 3 30 19 48
36 26 26 30 35 25 67 -10 65 -30 99 -78 132 -67 46 -223 100 -288 100 -48 -1
-50 -2 -33 -15z"/>
<path d="M935 1097 c-27 -38 -91 -117 -142 -174 -50 -58 -107 -127 -125 -154
-18 -26 -41 -49 -50 -49 -10 0 -18 -7 -18 -15 0 -8 -9 -15 -19 -15 -11 0 -29
-12 -41 -27 -18 -23 -20 -35 -15 -78 5 -34 14 -56 30 -70 12 -11 26 -31 30
-45 4 -14 26 -41 47 -61 39 -35 40 -36 90 -26 60 12 75 35 61 94 -12 47 10
115 126 396 70 169 82 206 79 246 l-3 48 -50 -70z"/>
<path d="M2695 1130 c-3 -5 -21 -6 -40 -3 l-35 6 0 -41 c0 -34 -6 -45 -40 -76
-32 -29 -40 -43 -40 -71 l0 -35 53 22 c62 25 117 35 117 19 0 -30 124 -118
199 -140 53 -16 62 -16 161 0 58 9 122 21 142 26 l38 8 -26 43 c-24 39 -41 50
-227 144 -154 77 -213 102 -249 104 -26 2 -50 -1 -53 -6z"/>
</g>
</svg>
